<mxfile host="app.diagrams.net" agent="Mozilla/5.0 (Macintosh; Intel Mac OS X 10_15_7) AppleWebKit/537.36 (KHTML, like Gecko) Chrome/132.0.0.0 Safari/537.36" version="26.0.16">
  <diagram name="第 1 页" id="970Zb_opqBP0MtSNBVSl">
    <mxGraphModel dx="1741" dy="1100" grid="0" gridSize="10" guides="1" tooltips="1" connect="1" arrows="1" fold="1" page="0" pageScale="1" pageWidth="850" pageHeight="1100" math="0" shadow="0">
      <root>
        <mxCell id="0" />
        <mxCell id="1" parent="0" />
        <mxCell id="i6Jn5ERT1qPLRwLvSOFF-4" value="" style="whiteSpace=wrap;html=1;" vertex="1" parent="1">
          <mxGeometry x="161.5" y="23" width="1104" height="1084" as="geometry" />
        </mxCell>
        <mxCell id="i6Jn5ERT1qPLRwLvSOFF-3" value="&lt;font style=&quot;font-size: 25px;&quot;&gt;展现层&lt;/font&gt;" style="shape=step;perimeter=stepPerimeter;whiteSpace=wrap;html=1;fixedSize=1;" vertex="1" parent="1">
          <mxGeometry x="242" y="172" width="230" height="96" as="geometry" />
        </mxCell>
        <mxCell id="i6Jn5ERT1qPLRwLvSOFF-5" value="&lt;font style=&quot;font-size: 25px;&quot;&gt;接入层&lt;/font&gt;" style="shape=step;perimeter=stepPerimeter;whiteSpace=wrap;html=1;fixedSize=1;" vertex="1" parent="1">
          <mxGeometry x="242" y="286" width="230" height="127" as="geometry" />
        </mxCell>
        <mxCell id="i6Jn5ERT1qPLRwLvSOFF-6" value="&lt;font style=&quot;font-size: 25px;&quot;&gt;应用服务层&lt;/font&gt;" style="shape=step;perimeter=stepPerimeter;whiteSpace=wrap;html=1;fixedSize=1;" vertex="1" parent="1">
          <mxGeometry x="242" y="447" width="230" height="187" as="geometry" />
        </mxCell>
        <mxCell id="i6Jn5ERT1qPLRwLvSOFF-7" value="&lt;font style=&quot;font-size: 25px;&quot;&gt;基础服务层&lt;/font&gt;" style="shape=step;perimeter=stepPerimeter;whiteSpace=wrap;html=1;fixedSize=1;" vertex="1" parent="1">
          <mxGeometry x="242" y="650" width="230" height="92" as="geometry" />
        </mxCell>
        <mxCell id="i6Jn5ERT1qPLRwLvSOFF-8" value="&lt;font style=&quot;font-size: 25px;&quot;&gt;数据层&lt;/font&gt;" style="shape=step;perimeter=stepPerimeter;whiteSpace=wrap;html=1;fixedSize=1;" vertex="1" parent="1">
          <mxGeometry x="242" y="753" width="230" height="118" as="geometry" />
        </mxCell>
        <mxCell id="i6Jn5ERT1qPLRwLvSOFF-9" value="" style="rounded=0;whiteSpace=wrap;html=1;dashed=1;dashPattern=8 8;" vertex="1" parent="1">
          <mxGeometry x="526" y="757" width="566" height="118" as="geometry" />
        </mxCell>
        <mxCell id="i6Jn5ERT1qPLRwLvSOFF-14" value="" style="group" vertex="1" connectable="0" parent="1">
          <mxGeometry x="550" y="772" width="70" height="90" as="geometry" />
        </mxCell>
        <mxCell id="i6Jn5ERT1qPLRwLvSOFF-12" value="" style="shape=cylinder3;whiteSpace=wrap;html=1;boundedLbl=1;backgroundOutline=1;size=15;" vertex="1" parent="i6Jn5ERT1qPLRwLvSOFF-14">
          <mxGeometry width="60" height="80" as="geometry" />
        </mxCell>
        <mxCell id="i6Jn5ERT1qPLRwLvSOFF-13" value="MySQL主从" style="shape=cylinder3;whiteSpace=wrap;html=1;boundedLbl=1;backgroundOutline=1;size=15;" vertex="1" parent="i6Jn5ERT1qPLRwLvSOFF-14">
          <mxGeometry x="10" y="10" width="60" height="80" as="geometry" />
        </mxCell>
        <mxCell id="i6Jn5ERT1qPLRwLvSOFF-15" value="" style="group" vertex="1" connectable="0" parent="1">
          <mxGeometry x="658" y="772" width="70" height="90" as="geometry" />
        </mxCell>
        <mxCell id="i6Jn5ERT1qPLRwLvSOFF-16" value="" style="shape=cylinder3;whiteSpace=wrap;html=1;boundedLbl=1;backgroundOutline=1;size=15;" vertex="1" parent="i6Jn5ERT1qPLRwLvSOFF-15">
          <mxGeometry width="60" height="80" as="geometry" />
        </mxCell>
        <mxCell id="i6Jn5ERT1qPLRwLvSOFF-17" value="ES集群" style="shape=cylinder3;whiteSpace=wrap;html=1;boundedLbl=1;backgroundOutline=1;size=15;" vertex="1" parent="i6Jn5ERT1qPLRwLvSOFF-15">
          <mxGeometry x="10" y="10" width="60" height="80" as="geometry" />
        </mxCell>
        <mxCell id="i6Jn5ERT1qPLRwLvSOFF-18" value="" style="group" vertex="1" connectable="0" parent="1">
          <mxGeometry x="779" y="773" width="70" height="90" as="geometry" />
        </mxCell>
        <mxCell id="i6Jn5ERT1qPLRwLvSOFF-19" value="" style="shape=cylinder3;whiteSpace=wrap;html=1;boundedLbl=1;backgroundOutline=1;size=15;" vertex="1" parent="i6Jn5ERT1qPLRwLvSOFF-18">
          <mxGeometry width="60" height="80" as="geometry" />
        </mxCell>
        <mxCell id="i6Jn5ERT1qPLRwLvSOFF-20" value="Redis集群" style="shape=cylinder3;whiteSpace=wrap;html=1;boundedLbl=1;backgroundOutline=1;size=15;" vertex="1" parent="i6Jn5ERT1qPLRwLvSOFF-18">
          <mxGeometry x="10" y="10" width="60" height="80" as="geometry" />
        </mxCell>
        <mxCell id="i6Jn5ERT1qPLRwLvSOFF-22" value="" style="rounded=0;whiteSpace=wrap;html=1;dashed=1;dashPattern=8 8;" vertex="1" parent="1">
          <mxGeometry x="526" y="650" width="566" height="92" as="geometry" />
        </mxCell>
        <mxCell id="i6Jn5ERT1qPLRwLvSOFF-21" value="COS对象存储" style="rounded=1;whiteSpace=wrap;html=1;" vertex="1" parent="1">
          <mxGeometry x="912" y="785.5" width="132" height="65" as="geometry" />
        </mxCell>
        <mxCell id="i6Jn5ERT1qPLRwLvSOFF-23" value="" style="rounded=0;whiteSpace=wrap;html=1;dashed=1;dashPattern=8 8;" vertex="1" parent="1">
          <mxGeometry x="526" y="291" width="566" height="127" as="geometry" />
        </mxCell>
        <mxCell id="i6Jn5ERT1qPLRwLvSOFF-26" value="监控告警" style="rounded=1;whiteSpace=wrap;html=1;" vertex="1" parent="1">
          <mxGeometry x="529" y="661" width="120" height="60" as="geometry" />
        </mxCell>
        <mxCell id="i6Jn5ERT1qPLRwLvSOFF-27" value="备份服务" style="rounded=1;whiteSpace=wrap;html=1;" vertex="1" parent="1">
          <mxGeometry x="669" y="661" width="120" height="60" as="geometry" />
        </mxCell>
        <mxCell id="i6Jn5ERT1qPLRwLvSOFF-28" value="分布式任务调度" style="rounded=1;whiteSpace=wrap;html=1;" vertex="1" parent="1">
          <mxGeometry x="954" y="661" width="120" height="60" as="geometry" />
        </mxCell>
        <mxCell id="i6Jn5ERT1qPLRwLvSOFF-29" value="消费者服务" style="rounded=1;whiteSpace=wrap;html=1;" vertex="1" parent="1">
          <mxGeometry x="809" y="661" width="120" height="60" as="geometry" />
        </mxCell>
        <mxCell id="i6Jn5ERT1qPLRwLvSOFF-31" value="Https" style="rounded=1;whiteSpace=wrap;html=1;" vertex="1" parent="1">
          <mxGeometry x="573" y="302" width="113" height="30" as="geometry" />
        </mxCell>
        <mxCell id="i6Jn5ERT1qPLRwLvSOFF-32" value="" style="rounded=0;whiteSpace=wrap;html=1;dashed=1;dashPattern=8 8;" vertex="1" parent="1">
          <mxGeometry x="525" y="176" width="567" height="96" as="geometry" />
        </mxCell>
        <mxCell id="i6Jn5ERT1qPLRwLvSOFF-33" value="Vue" style="rounded=1;whiteSpace=wrap;html=1;" vertex="1" parent="1">
          <mxGeometry x="556" y="195" width="120" height="60" as="geometry" />
        </mxCell>
        <mxCell id="i6Jn5ERT1qPLRwLvSOFF-34" value="React&lt;span style=&quot;color: rgba(0, 0, 0, 0); font-family: monospace; font-size: 0px; text-align: start; text-wrap-mode: nowrap;&quot;&gt;%3CmxGraphModel%3E%3Croot%3E%3CmxCell%20id%3D%220%22%2F%3E%3CmxCell%20id%3D%221%22%20parent%3D%220%22%2F%3E%3CmxCell%20id%3D%222%22%20value%3D%22Vue%22%20style%3D%22rounded%3D1%3BwhiteSpace%3Dwrap%3Bhtml%3D1%3B%22%20vertex%3D%221%22%20parent%3D%221%22%3E%3CmxGeometry%20x%3D%22546%22%20y%3D%22215%22%20width%3D%22120%22%20height%3D%2260%22%20as%3D%22geometry%22%2F%3E%3C%2FmxCell%3E%3C%2Froot%3E%3C%2FmxGraphModel%3E&lt;/span&gt;" style="rounded=1;whiteSpace=wrap;html=1;" vertex="1" parent="1">
          <mxGeometry x="741" y="195" width="120" height="60" as="geometry" />
        </mxCell>
        <mxCell id="i6Jn5ERT1qPLRwLvSOFF-36" value="JQuery" style="rounded=1;whiteSpace=wrap;html=1;" vertex="1" parent="1">
          <mxGeometry x="918" y="195" width="120" height="60" as="geometry" />
        </mxCell>
        <mxCell id="i6Jn5ERT1qPLRwLvSOFF-37" value="WebSocket" style="rounded=1;whiteSpace=wrap;html=1;" vertex="1" parent="1">
          <mxGeometry x="953" y="302" width="113" height="30" as="geometry" />
        </mxCell>
        <mxCell id="i6Jn5ERT1qPLRwLvSOFF-38" value="WAF" style="rounded=1;whiteSpace=wrap;html=1;" vertex="1" parent="1">
          <mxGeometry x="573" y="338" width="493" height="28" as="geometry" />
        </mxCell>
        <mxCell id="i6Jn5ERT1qPLRwLvSOFF-40" value="APISX" style="rounded=1;whiteSpace=wrap;html=1;" vertex="1" parent="1">
          <mxGeometry x="573" y="375" width="113" height="30" as="geometry" />
        </mxCell>
        <mxCell id="i6Jn5ERT1qPLRwLvSOFF-41" value="CLB" style="rounded=1;whiteSpace=wrap;html=1;" vertex="1" parent="1">
          <mxGeometry x="953" y="378" width="113" height="30" as="geometry" />
        </mxCell>
        <mxCell id="i6Jn5ERT1qPLRwLvSOFF-42" value="" style="rounded=0;whiteSpace=wrap;html=1;dashed=1;dashPattern=8 8;" vertex="1" parent="1">
          <mxGeometry x="526" y="436" width="566" height="187" as="geometry" />
        </mxCell>
        <mxCell id="i6Jn5ERT1qPLRwLvSOFF-44" value="" style="rounded=1;whiteSpace=wrap;html=1;dashed=1;dashPattern=12 12;" vertex="1" parent="1">
          <mxGeometry x="552" y="459" width="242" height="86" as="geometry" />
        </mxCell>
        <mxCell id="i6Jn5ERT1qPLRwLvSOFF-45" value="应用服务" style="text;html=1;align=center;verticalAlign=middle;whiteSpace=wrap;rounded=0;" vertex="1" parent="1">
          <mxGeometry x="559" y="462" width="60" height="30" as="geometry" />
        </mxCell>
        <mxCell id="i6Jn5ERT1qPLRwLvSOFF-46" value="" style="rounded=1;whiteSpace=wrap;html=1;dashed=1;dashPattern=12 12;" vertex="1" parent="1">
          <mxGeometry x="832" y="459" width="242" height="140" as="geometry" />
        </mxCell>
        <mxCell id="i6Jn5ERT1qPLRwLvSOFF-47" value="组件服务" style="text;html=1;align=center;verticalAlign=middle;whiteSpace=wrap;rounded=0;" vertex="1" parent="1">
          <mxGeometry x="839" y="457" width="60" height="30" as="geometry" />
        </mxCell>
        <mxCell id="i6Jn5ERT1qPLRwLvSOFF-49" value="" style="html=1;shadow=0;dashed=0;align=center;verticalAlign=middle;shape=mxgraph.arrows2.arrow;dy=0.68;dx=15;flipH=1;notch=0;" vertex="1" parent="1">
          <mxGeometry x="796" y="497.5" width="33" height="20" as="geometry" />
        </mxCell>
        <mxCell id="i6Jn5ERT1qPLRwLvSOFF-50" value="highchart" style="rounded=1;whiteSpace=wrap;html=1;" vertex="1" parent="1">
          <mxGeometry x="856" y="495" width="68" height="25" as="geometry" />
        </mxCell>
        <mxCell id="i6Jn5ERT1qPLRwLvSOFF-51" value="&lt;span style=&quot;font-family: 默认字体; font-size: 13px; background-color: rgb(248, 249, 250);&quot;&gt;html2png&lt;/span&gt;" style="rounded=1;whiteSpace=wrap;html=1;" vertex="1" parent="1">
          <mxGeometry x="860" y="550" width="68" height="25" as="geometry" />
        </mxCell>
        <mxCell id="i6Jn5ERT1qPLRwLvSOFF-52" value="&lt;span style=&quot;font-family: 默认字体; font-size: 13px; background-color: rgb(248, 249, 250);&quot;&gt;puppeteer&lt;/span&gt;" style="rounded=1;whiteSpace=wrap;html=1;" vertex="1" parent="1">
          <mxGeometry x="969" y="495" width="83" height="25" as="geometry" />
        </mxCell>
        <mxCell id="i6Jn5ERT1qPLRwLvSOFF-53" value="&lt;span style=&quot;font-family: 默认字体; font-size: 13px; background-color: rgb(248, 249, 250);&quot;&gt;video-transcoding&lt;/span&gt;" style="rounded=1;whiteSpace=wrap;html=1;" vertex="1" parent="1">
          <mxGeometry x="968" y="530" width="84" height="49" as="geometry" />
        </mxCell>
        <mxCell id="i6Jn5ERT1qPLRwLvSOFF-54" value="web-backend" style="rounded=1;whiteSpace=wrap;html=1;" vertex="1" parent="1">
          <mxGeometry x="672" y="505" width="83" height="24" as="geometry" />
        </mxCell>
        <mxCell id="i6Jn5ERT1qPLRwLvSOFF-55" value="fe" style="rounded=1;whiteSpace=wrap;html=1;" vertex="1" parent="1">
          <mxGeometry x="577" y="505" width="68" height="25" as="geometry" />
        </mxCell>
        <mxCell id="i6Jn5ERT1qPLRwLvSOFF-56" value="dev-lib" style="rounded=1;whiteSpace=wrap;html=1;" vertex="1" parent="1">
          <mxGeometry x="709" y="467" width="68" height="25" as="geometry" />
        </mxCell>
        <mxCell id="i6Jn5ERT1qPLRwLvSOFF-57" value="mobile" style="rounded=1;whiteSpace=wrap;html=1;" vertex="1" parent="1">
          <mxGeometry x="622" y="467" width="68" height="25" as="geometry" />
        </mxCell>
        <mxCell id="i6Jn5ERT1qPLRwLvSOFF-59" value="" style="rounded=1;whiteSpace=wrap;html=1;dashed=1;dashPattern=12 12;" vertex="1" parent="1">
          <mxGeometry x="551" y="554" width="245" height="60" as="geometry" />
        </mxCell>
        <mxCell id="i6Jn5ERT1qPLRwLvSOFF-60" value="其他服务" style="text;html=1;align=center;verticalAlign=middle;whiteSpace=wrap;rounded=0;" vertex="1" parent="1">
          <mxGeometry x="552" y="550" width="60" height="30" as="geometry" />
        </mxCell>
        <mxCell id="i6Jn5ERT1qPLRwLvSOFF-61" value="python-stat" style="rounded=1;whiteSpace=wrap;html=1;" vertex="1" parent="1">
          <mxGeometry x="626" y="574" width="113" height="25" as="geometry" />
        </mxCell>
        <mxCell id="i6Jn5ERT1qPLRwLvSOFF-62" value="" style="html=1;shadow=0;dashed=0;align=center;verticalAlign=middle;shape=mxgraph.arrows2.arrow;dy=0.68;dx=15;flipH=1;notch=0;" vertex="1" parent="1">
          <mxGeometry x="799" y="567" width="33" height="20" as="geometry" />
        </mxCell>
      </root>
    </mxGraphModel>
  </diagram>
</mxfile>
